<svg width="24" height="33" viewBox="0 0 24 33" fill="none" xmlns="http://www.w3.org/2000/svg">
<path fill-rule="evenodd" clip-rule="evenodd" d="M11.3116 28.5169C8.83539 28.4647 6.33106 28.7573 3.90613 29.0585C3.38427 29.1251 3.0023 29.5905 3.09001 30.0872C3.14166 30.5934 3.61673 30.9477 4.10244 30.8903C6.45227 30.5964 8.87925 30.3041 11.241 30.36C11.7449 30.3742 12.1813 29.9704 12.2057 29.4605C12.2301 28.9508 11.8156 28.5315 11.3116 28.5169Z" fill="#A15842"/>
<path fill-rule="evenodd" clip-rule="evenodd" d="M16.019 17.6611C11.3439 14.8615 6.32124 12.6634 1.69284 9.74488C1.27622 9.46833 0.692919 9.59604 0.416613 10.0232C0.140397 10.4508 0.247803 11.0244 0.700573 11.2917C5.33178 14.2213 10.3571 16.4301 15.0351 19.2408C15.4857 19.4996 16.0652 19.3576 16.3391 18.9208C16.5769 18.4936 16.4696 17.9199 16.019 17.6611Z" fill="#A15842"/>
<path fill-rule="evenodd" clip-rule="evenodd" d="M19.3361 1.48119C19.9893 3.59748 20.6422 5.71383 21.2954 7.83048C21.4202 8.32154 21.9506 8.59043 22.4506 8.43797C22.9506 8.28515 23.2056 7.77535 23.0808 7.28393C22.4267 5.16408 21.773 3.04452 21.119 0.925018C20.9581 0.443142 20.4285 0.176707 19.9292 0.332021C19.4661 0.47815 19.1753 0.999669 19.3361 1.48119Z" fill="#A15842"/>
</svg>
